# xmcd
#
# Track frame offsets:
# 150
# 20950
# 39205
# 57085
# 75975
# 93010
# 110720
# 129742
# 145190
# 165932
# 182497
# 204150
# 221737
# 248950
#
# Disc length: 3470 seconds
#
#
# Revision: 2
# Processed by: cddbd v1.5.1PL0 Copyright (c) Steve Scherf et al.
# Submitted via: FreeRIP 2.942 
#
DISCID=b40d8c0e
DTITLE=Babyface - Grown and sexy
DYEAR=2005
DGENRE=Adullt contemporary R and B
TTITLE0=tonight it's goin' down
TTITLE1=grown and sexy
TTITLE2=mad, sexy, cool
TTITLE3=can't stop now
TTITLE4=goin' outta business
TTITLE5=drama, love and 'lationships
TTITLE6=sorry for the stupid things
TTITLE7=good to be in love
TTITLE8=the loneliness
TTITLE9=she
TTITLE10=god must love u
TTITLE11=the gettin' to know you
TTITLE12=she's international
TTITLE13=Data Track
EXTD=
EXTT0=
EXTT1=
EXTT2=
EXTT3=
EXTT4=
EXTT5=
EXTT6=
EXTT7=
EXTT8=
EXTT9=
EXTT10=
EXTT11=
EXTT12=
EXTT13=
PLAYORDER=
